<?xml version="1.0" encoding="utf-8" standalone="no"?>
<!DOCTYPE svg PUBLIC "-//W3C//DTD SVG 1.1//EN"
  "http://www.w3.org/Graphics/SVG/1.1/DTD/svg11.dtd">
<svg xmlns:xlink="http://www.w3.org/1999/xlink" width="460.8pt" height="345.6pt" viewBox="0 0 460.8 345.6" xmlns="http://www.w3.org/2000/svg" version="1.1">
 <metadata>
  <rdf:RDF xmlns:dc="http://purl.org/dc/elements/1.1/" xmlns:cc="http://creativecommons.org/ns#" xmlns:rdf="http://www.w3.org/1999/02/22-rdf-syntax-ns#">
   <cc:Work>
    <dc:type rdf:resource="http://purl.org/dc/dcmitype/StillImage"/>
    <dc:date>2024-07-06T13:25:25.554689</dc:date>
    <dc:format>image/svg+xml</dc:format>
    <dc:creator>
     <cc:Agent>
      <dc:title>Matplotlib v3.9.0, https://matplotlib.org/</dc:title>
     </cc:Agent>
    </dc:creator>
   </cc:Work>
  </rdf:RDF>
 </metadata>
 <defs>
  <style type="text/css">*{stroke-linejoin: round; stroke-linecap: butt}</style>
 </defs>
 <g id="figure_1">
  <g id="patch_1">
   <path d="M 0 345.6 
L 460.8 345.6 
L 460.8 0 
L 0 0 
z
" style="fill: #ffffff"/>
  </g>
  <g id="axes_1">
   <g id="patch_2">
    <path d="M 57.6 307.584 
L 414.72 307.584 
L 414.72 41.472 
L 57.6 41.472 
z
" style="fill: #ffffff"/>
   </g>
   <g id="PolyCollection_1">
    <defs>
     <path id="mf434438b55" d="M 57.6 -50.162794 
L 57.6 -50.112 
L 61.207273 -52.555123 
L 64.814545 -54.998247 
L 68.421818 -57.44137 
L 72.029091 -59.884493 
L 75.636364 -62.327616 
L 79.243636 -64.77074 
L 82.850909 -67.213863 
L 86.458182 -69.656986 
L 90.065455 -72.10011 
L 93.672727 -74.543233 
L 97.28 -76.986356 
L 100.887273 -79.42948 
L 104.494545 -81.872603 
L 108.101818 -84.315726 
L 111.709091 -86.758849 
L 115.316364 -89.201973 
L 118.923636 -91.645096 
L 122.530909 -94.088219 
L 126.138182 -96.531343 
L 129.745455 -98.974466 
L 133.352727 -101.417589 
L 136.96 -103.860712 
L 140.567273 -106.303836 
L 144.174545 -108.746959 
L 147.781818 -111.190082 
L 151.389091 -113.633206 
L 154.996364 -116.076329 
L 158.603636 -118.519452 
L 162.210909 -120.962575 
L 165.818182 -123.405699 
L 169.425455 -125.848822 
L 173.032727 -128.291945 
L 176.64 -130.735069 
L 180.247273 -133.178192 
L 183.854545 -135.621315 
L 187.461818 -138.064439 
L 191.069091 -140.507562 
L 194.676364 -142.950685 
L 198.283636 -145.393808 
L 201.890909 -147.836932 
L 205.498182 -150.280055 
L 209.105455 -152.723178 
L 212.712727 -155.166302 
L 216.32 -157.609425 
L 219.927273 -160.052548 
L 223.534545 -162.495671 
L 227.141818 -164.938795 
L 230.749091 -167.381918 
L 234.356364 -169.825041 
L 237.963636 -172.268165 
L 241.570909 -174.711288 
L 245.178182 -177.154411 
L 248.785455 -179.597534 
L 252.392727 -182.040658 
L 256 -184.483781 
L 259.607273 -186.926904 
L 263.214545 -189.370028 
L 266.821818 -191.813151 
L 270.429091 -194.256274 
L 274.036364 -196.699398 
L 277.643636 -199.142521 
L 281.250909 -201.585644 
L 284.858182 -204.028767 
L 288.465455 -206.471891 
L 292.072727 -208.915014 
L 295.68 -211.358137 
L 299.287273 -213.801261 
L 302.894545 -216.244384 
L 306.501818 -218.687507 
L 310.109091 -221.13063 
L 313.716364 -223.573754 
L 317.323636 -226.016877 
L 320.930909 -228.46 
L 324.538182 -230.903124 
L 328.145455 -233.346247 
L 331.752727 -235.78937 
L 335.36 -238.232493 
L 338.967273 -240.675617 
L 342.574545 -243.11874 
L 346.181818 -245.561863 
L 349.789091 -248.004987 
L 353.396364 -250.44811 
L 357.003636 -252.891233 
L 360.610909 -255.334357 
L 364.218182 -257.77748 
L 367.825455 -260.220603 
L 371.432727 -262.663726 
L 375.04 -265.10685 
L 378.647273 -267.549973 
L 382.254545 -269.993096 
L 385.861818 -272.43622 
L 389.469091 -274.879343 
L 393.076364 -277.322466 
L 396.683636 -279.765589 
L 400.290909 -282.208713 
L 403.898182 -284.651836 
L 407.505455 -287.094959 
L 411.112727 -289.538083 
L 414.72 -291.981206 
L 414.72 -292.032 
L 414.72 -292.032 
L 411.112727 -289.588877 
L 407.505455 -287.145753 
L 403.898182 -284.70263 
L 400.290909 -282.259507 
L 396.683636 -279.816384 
L 393.076364 -277.37326 
L 389.469091 -274.930137 
L 385.861818 -272.487014 
L 382.254545 -270.04389 
L 378.647273 -267.600767 
L 375.04 -265.157644 
L 371.432727 -262.71452 
L 367.825455 -260.271397 
L 364.218182 -257.828274 
L 360.610909 -255.385151 
L 357.003636 -252.942027 
L 353.396364 -250.498904 
L 349.789091 -248.055781 
L 346.181818 -245.612657 
L 342.574545 -243.169534 
L 338.967273 -240.726411 
L 335.36 -238.283288 
L 331.752727 -235.840164 
L 328.145455 -233.397041 
L 324.538182 -230.953918 
L 320.930909 -228.510794 
L 317.323636 -226.067671 
L 313.716364 -223.624548 
L 310.109091 -221.181425 
L 306.501818 -218.738301 
L 302.894545 -216.295178 
L 299.287273 -213.852055 
L 295.68 -211.408931 
L 292.072727 -208.965808 
L 288.465455 -206.522685 
L 284.858182 -204.079561 
L 281.250909 -201.636438 
L 277.643636 -199.193315 
L 274.036364 -196.750192 
L 270.429091 -194.307068 
L 266.821818 -191.863945 
L 263.214545 -189.420822 
L 259.607273 -186.977698 
L 256 -184.534575 
L 252.392727 -182.091452 
L 248.785455 -179.648329 
L 245.178182 -177.205205 
L 241.570909 -174.762082 
L 237.963636 -172.318959 
L 234.356364 -169.875835 
L 230.749091 -167.432712 
L 227.141818 -164.989589 
L 223.534545 -162.546466 
L 219.927273 -160.103342 
L 216.32 -157.660219 
L 212.712727 -155.217096 
L 209.105455 -152.773972 
L 205.498182 -150.330849 
L 201.890909 -147.887726 
L 198.283636 -145.444602 
L 194.676364 -143.001479 
L 191.069091 -140.558356 
L 187.461818 -138.115233 
L 183.854545 -135.672109 
L 180.247273 -133.228986 
L 176.64 -130.785863 
L 173.032727 -128.342739 
L 169.425455 -125.899616 
L 165.818182 -123.456493 
L 162.210909 -121.01337 
L 158.603636 -118.570246 
L 154.996364 -116.127123 
L 151.389091 -113.684 
L 147.781818 -111.240876 
L 144.174545 -108.797753 
L 140.567273 -106.35463 
L 136.96 -103.911507 
L 133.352727 -101.468383 
L 129.745455 -99.02526 
L 126.138182 -96.582137 
L 122.530909 -94.139013 
L 118.923636 -91.69589 
L 115.316364 -89.252767 
L 111.709091 -86.809643 
L 108.101818 -84.36652 
L 104.494545 -81.923397 
L 100.887273 -79.480274 
L 97.28 -77.03715 
L 93.672727 -74.594027 
L 90.065455 -72.150904 
L 86.458182 -69.70778 
L 82.850909 -67.264657 
L 79.243636 -64.821534 
L 75.636364 -62.378411 
L 72.029091 -59.935287 
L 68.421818 -57.492164 
L 64.814545 -55.049041 
L 61.207273 -52.605917 
L 57.6 -50.162794 
z
" style="stroke: #ffa500; stroke-opacity: 0.2"/>
    </defs>
    <g clip-path="url(#pbb5d257eb3)">
     <use xlink:href="#mf434438b55" x="0" y="345.6" style="fill: #ffa500; fill-opacity: 0.2; stroke: #ffa500; stroke-opacity: 0.2"/>
    </g>
   </g>
   <g id="matplotlib.axis_1">
    <g id="xtick_1">
     <g id="line2d_1">
      <defs>
       <path id="mba93332500" d="M 0 0 
L 0 3.5 
" style="stroke: #000000; stroke-width: 0.8"/>
      </defs>
      <g>
       <use xlink:href="#mba93332500" x="100.539697" y="307.584" style="stroke: #000000; stroke-width: 0.8"/>
      </g>
     </g>
     <g id="text_1">
      <!-- 200 -->
      <g transform="translate(90.995947 322.182437) scale(0.1 -0.1)">
       <defs>
        <path id="DejaVuSans-32" d="M 1228 531 
L 3431 531 
L 3431 0 
L 469 0 
L 469 531 
Q 828 903 1448 1529 
Q 2069 2156 2228 2338 
Q 2531 2678 2651 2914 
Q 2772 3150 2772 3378 
Q 2772 3750 2511 3984 
Q 2250 4219 1831 4219 
Q 1534 4219 1204 4116 
Q 875 4013 500 3803 
L 500 4441 
Q 881 4594 1212 4672 
Q 1544 4750 1819 4750 
Q 2544 4750 2975 4387 
Q 3406 4025 3406 3419 
Q 3406 3131 3298 2873 
Q 3191 2616 2906 2266 
Q 2828 2175 2409 1742 
Q 1991 1309 1228 531 
z
" transform="scale(0.015625)"/>
        <path id="DejaVuSans-30" d="M 2034 4250 
Q 1547 4250 1301 3770 
Q 1056 3291 1056 2328 
Q 1056 1369 1301 889 
Q 1547 409 2034 409 
Q 2525 409 2770 889 
Q 3016 1369 3016 2328 
Q 3016 3291 2770 3770 
Q 2525 4250 2034 4250 
z
M 2034 4750 
Q 2819 4750 3233 4129 
Q 3647 3509 3647 2328 
Q 3647 1150 3233 529 
Q 2819 -91 2034 -91 
Q 1250 -91 836 529 
Q 422 1150 422 2328 
Q 422 3509 836 4129 
Q 1250 4750 2034 4750 
z
" transform="scale(0.015625)"/>
       </defs>
       <use xlink:href="#DejaVuSans-32"/>
       <use xlink:href="#DejaVuSans-30" x="63.623047"/>
       <use xlink:href="#DejaVuSans-30" x="127.246094"/>
      </g>
     </g>
    </g>
    <g id="xtick_2">
     <g id="line2d_2">
      <g>
       <use xlink:href="#mba93332500" x="155.134893" y="307.584" style="stroke: #000000; stroke-width: 0.8"/>
      </g>
     </g>
     <g id="text_2">
      <!-- 400 -->
      <g transform="translate(145.591143 322.182437) scale(0.1 -0.1)">
       <defs>
        <path id="DejaVuSans-34" d="M 2419 4116 
L 825 1625 
L 2419 1625 
L 2419 4116 
z
M 2253 4666 
L 3047 4666 
L 3047 1625 
L 3713 1625 
L 3713 1100 
L 3047 1100 
L 3047 0 
L 2419 0 
L 2419 1100 
L 313 1100 
L 313 1709 
L 2253 4666 
z
" transform="scale(0.015625)"/>
       </defs>
       <use xlink:href="#DejaVuSans-34"/>
       <use xlink:href="#DejaVuSans-30" x="63.623047"/>
       <use xlink:href="#DejaVuSans-30" x="127.246094"/>
      </g>
     </g>
    </g>
    <g id="xtick_3">
     <g id="line2d_3">
      <g>
       <use xlink:href="#mba93332500" x="209.730089" y="307.584" style="stroke: #000000; stroke-width: 0.8"/>
      </g>
     </g>
     <g id="text_3">
      <!-- 600 -->
      <g transform="translate(200.186339 322.182437) scale(0.1 -0.1)">
       <defs>
        <path id="DejaVuSans-36" d="M 2113 2584 
Q 1688 2584 1439 2293 
Q 1191 2003 1191 1497 
Q 1191 994 1439 701 
Q 1688 409 2113 409 
Q 2538 409 2786 701 
Q 3034 994 3034 1497 
Q 3034 2003 2786 2293 
Q 2538 2584 2113 2584 
z
M 3366 4563 
L 3366 3988 
Q 3128 4100 2886 4159 
Q 2644 4219 2406 4219 
Q 1781 4219 1451 3797 
Q 1122 3375 1075 2522 
Q 1259 2794 1537 2939 
Q 1816 3084 2150 3084 
Q 2853 3084 3261 2657 
Q 3669 2231 3669 1497 
Q 3669 778 3244 343 
Q 2819 -91 2113 -91 
Q 1303 -91 875 529 
Q 447 1150 447 2328 
Q 447 3434 972 4092 
Q 1497 4750 2381 4750 
Q 2619 4750 2861 4703 
Q 3103 4656 3366 4563 
z
" transform="scale(0.015625)"/>
       </defs>
       <use xlink:href="#DejaVuSans-36"/>
       <use xlink:href="#DejaVuSans-30" x="63.623047"/>
       <use xlink:href="#DejaVuSans-30" x="127.246094"/>
      </g>
     </g>
    </g>
    <g id="xtick_4">
     <g id="line2d_4">
      <g>
       <use xlink:href="#mba93332500" x="264.325285" y="307.584" style="stroke: #000000; stroke-width: 0.8"/>
      </g>
     </g>
     <g id="text_4">
      <!-- 800 -->
      <g transform="translate(254.781535 322.182437) scale(0.1 -0.1)">
       <defs>
        <path id="DejaVuSans-38" d="M 2034 2216 
Q 1584 2216 1326 1975 
Q 1069 1734 1069 1313 
Q 1069 891 1326 650 
Q 1584 409 2034 409 
Q 2484 409 2743 651 
Q 3003 894 3003 1313 
Q 3003 1734 2745 1975 
Q 2488 2216 2034 2216 
z
M 1403 2484 
Q 997 2584 770 2862 
Q 544 3141 544 3541 
Q 544 4100 942 4425 
Q 1341 4750 2034 4750 
Q 2731 4750 3128 4425 
Q 3525 4100 3525 3541 
Q 3525 3141 3298 2862 
Q 3072 2584 2669 2484 
Q 3125 2378 3379 2068 
Q 3634 1759 3634 1313 
Q 3634 634 3220 271 
Q 2806 -91 2034 -91 
Q 1263 -91 848 271 
Q 434 634 434 1313 
Q 434 1759 690 2068 
Q 947 2378 1403 2484 
z
M 1172 3481 
Q 1172 3119 1398 2916 
Q 1625 2713 2034 2713 
Q 2441 2713 2670 2916 
Q 2900 3119 2900 3481 
Q 2900 3844 2670 4047 
Q 2441 4250 2034 4250 
Q 1625 4250 1398 4047 
Q 1172 3844 1172 3481 
z
" transform="scale(0.015625)"/>
       </defs>
       <use xlink:href="#DejaVuSans-38"/>
       <use xlink:href="#DejaVuSans-30" x="63.623047"/>
       <use xlink:href="#DejaVuSans-30" x="127.246094"/>
      </g>
     </g>
    </g>
    <g id="xtick_5">
     <g id="line2d_5">
      <g>
       <use xlink:href="#mba93332500" x="318.920481" y="307.584" style="stroke: #000000; stroke-width: 0.8"/>
      </g>
     </g>
     <g id="text_5">
      <!-- 1000 -->
      <g transform="translate(306.195481 322.182437) scale(0.1 -0.1)">
       <defs>
        <path id="DejaVuSans-31" d="M 794 531 
L 1825 531 
L 1825 4091 
L 703 3866 
L 703 4441 
L 1819 4666 
L 2450 4666 
L 2450 531 
L 3481 531 
L 3481 0 
L 794 0 
L 794 531 
z
" transform="scale(0.015625)"/>
       </defs>
       <use xlink:href="#DejaVuSans-31"/>
       <use xlink:href="#DejaVuSans-30" x="63.623047"/>
       <use xlink:href="#DejaVuSans-30" x="127.246094"/>
       <use xlink:href="#DejaVuSans-30" x="190.869141"/>
      </g>
     </g>
    </g>
    <g id="xtick_6">
     <g id="line2d_6">
      <g>
       <use xlink:href="#mba93332500" x="373.515677" y="307.584" style="stroke: #000000; stroke-width: 0.8"/>
      </g>
     </g>
     <g id="text_6">
      <!-- 1200 -->
      <g transform="translate(360.790677 322.182437) scale(0.1 -0.1)">
       <use xlink:href="#DejaVuSans-31"/>
       <use xlink:href="#DejaVuSans-32" x="63.623047"/>
       <use xlink:href="#DejaVuSans-30" x="127.246094"/>
       <use xlink:href="#DejaVuSans-30" x="190.869141"/>
      </g>
     </g>
    </g>
    <g id="text_7">
     <!-- $r^{-2}sin^{-4}(\theta /2) ~[m^{-2}]$ -->
     <g transform="translate(188.31 336.682437) scale(0.1 -0.1)">
      <defs>
       <path id="DejaVuSans-Oblique-72" d="M 2853 2969 
Q 2766 3016 2653 3041 
Q 2541 3066 2413 3066 
Q 1953 3066 1609 2717 
Q 1266 2369 1153 1784 
L 800 0 
L 225 0 
L 909 3500 
L 1484 3500 
L 1375 2956 
Q 1603 3259 1920 3421 
Q 2238 3584 2597 3584 
Q 2691 3584 2781 3573 
Q 2872 3563 2963 3538 
L 2853 2969 
z
" transform="scale(0.015625)"/>
       <path id="DejaVuSans-2212" d="M 678 2272 
L 4684 2272 
L 4684 1741 
L 678 1741 
L 678 2272 
z
" transform="scale(0.015625)"/>
       <path id="DejaVuSans-Oblique-73" d="M 3200 3397 
L 3091 2853 
Q 2863 2978 2609 3040 
Q 2356 3103 2088 3103 
Q 1634 3103 1373 2948 
Q 1113 2794 1113 2528 
Q 1113 2219 1719 2053 
Q 1766 2041 1788 2034 
L 1972 1978 
Q 2547 1819 2739 1644 
Q 2931 1469 2931 1166 
Q 2931 609 2489 259 
Q 2047 -91 1331 -91 
Q 1053 -91 747 -37 
Q 441 16 72 128 
L 184 722 
Q 500 559 806 475 
Q 1113 391 1394 391 
Q 1816 391 2080 572 
Q 2344 753 2344 1031 
Q 2344 1331 1650 1516 
L 1591 1531 
L 1394 1581 
Q 956 1697 753 1886 
Q 550 2075 550 2369 
Q 550 2928 970 3256 
Q 1391 3584 2113 3584 
Q 2397 3584 2667 3537 
Q 2938 3491 3200 3397 
z
" transform="scale(0.015625)"/>
       <path id="DejaVuSans-Oblique-69" d="M 1172 4863 
L 1747 4863 
L 1606 4134 
L 1031 4134 
L 1172 4863 
z
M 909 3500 
L 1484 3500 
L 800 0 
L 225 0 
L 909 3500 
z
" transform="scale(0.015625)"/>
       <path id="DejaVuSans-Oblique-6e" d="M 3566 2113 
L 3156 0 
L 2578 0 
L 2988 2091 
Q 3016 2238 3031 2350 
Q 3047 2463 3047 2528 
Q 3047 2791 2881 2937 
Q 2716 3084 2419 3084 
Q 1956 3084 1622 2776 
Q 1288 2469 1184 1941 
L 800 0 
L 225 0 
L 903 3500 
L 1478 3500 
L 1363 2950 
Q 1603 3253 1940 3418 
Q 2278 3584 2650 3584 
Q 3113 3584 3367 3334 
Q 3622 3084 3622 2631 
Q 3622 2519 3608 2391 
Q 3594 2263 3566 2113 
z
" transform="scale(0.015625)"/>
       <path id="DejaVuSans-28" d="M 1984 4856 
Q 1566 4138 1362 3434 
Q 1159 2731 1159 2009 
Q 1159 1288 1364 580 
Q 1569 -128 1984 -844 
L 1484 -844 
Q 1016 -109 783 600 
Q 550 1309 550 2009 
Q 550 2706 781 3412 
Q 1013 4119 1484 4856 
L 1984 4856 
z
" transform="scale(0.015625)"/>
       <path id="DejaVuSans-Oblique-3b8" d="M 2913 2219 
L 925 2219 
Q 791 1284 928 888 
Q 1100 400 1566 400 
Q 2034 400 2391 891 
Q 2703 1322 2913 2219 
z
M 3009 2750 
Q 3094 3638 2984 3950 
Q 2813 4444 2353 4444 
Q 1875 4444 1525 3956 
Q 1250 3563 1034 2750 
L 3009 2750 
z
M 2444 4913 
Q 3194 4913 3494 4250 
Q 3794 3591 3566 2422 
Q 3341 1256 2781 594 
Q 2225 -72 1475 -72 
Q 722 -72 425 594 
Q 128 1256 353 2422 
Q 581 3591 1134 4250 
Q 1691 4913 2444 4913 
z
" transform="scale(0.015625)"/>
       <path id="DejaVuSans-2f" d="M 1625 4666 
L 2156 4666 
L 531 -594 
L 0 -594 
L 1625 4666 
z
" transform="scale(0.015625)"/>
       <path id="DejaVuSans-29" d="M 513 4856 
L 1013 4856 
Q 1481 4119 1714 3412 
Q 1947 2706 1947 2009 
Q 1947 1309 1714 600 
Q 1481 -109 1013 -844 
L 513 -844 
Q 928 -128 1133 580 
Q 1338 1288 1338 2009 
Q 1338 2731 1133 3434 
Q 928 4138 513 4856 
z
" transform="scale(0.015625)"/>
       <path id="DejaVuSans-5b" d="M 550 4863 
L 1875 4863 
L 1875 4416 
L 1125 4416 
L 1125 -397 
L 1875 -397 
L 1875 -844 
L 550 -844 
L 550 4863 
z
" transform="scale(0.015625)"/>
       <path id="DejaVuSans-Oblique-6d" d="M 5747 2113 
L 5338 0 
L 4763 0 
L 5166 2094 
Q 5191 2228 5203 2325 
Q 5216 2422 5216 2491 
Q 5216 2772 5059 2928 
Q 4903 3084 4622 3084 
Q 4203 3084 3875 2770 
Q 3547 2456 3450 1953 
L 3066 0 
L 2491 0 
L 2900 2094 
Q 2925 2209 2937 2307 
Q 2950 2406 2950 2484 
Q 2950 2769 2794 2926 
Q 2638 3084 2363 3084 
Q 1938 3084 1609 2770 
Q 1281 2456 1184 1953 
L 800 0 
L 225 0 
L 909 3500 
L 1484 3500 
L 1375 2956 
Q 1609 3263 1923 3423 
Q 2238 3584 2597 3584 
Q 2978 3584 3223 3384 
Q 3469 3184 3519 2828 
Q 3781 3197 4126 3390 
Q 4472 3584 4856 3584 
Q 5306 3584 5551 3325 
Q 5797 3066 5797 2591 
Q 5797 2488 5784 2364 
Q 5772 2241 5747 2113 
z
" transform="scale(0.015625)"/>
       <path id="DejaVuSans-5d" d="M 1947 4863 
L 1947 -844 
L 622 -844 
L 622 -397 
L 1369 -397 
L 1369 4416 
L 622 4416 
L 622 4863 
L 1947 4863 
z
" transform="scale(0.015625)"/>
      </defs>
      <use xlink:href="#DejaVuSans-Oblique-72" transform="translate(0 0.765625)"/>
      <use xlink:href="#DejaVuSans-2212" transform="translate(45.763177 39.046875) scale(0.7)"/>
      <use xlink:href="#DejaVuSans-32" transform="translate(104.415521 39.046875) scale(0.7)"/>
      <use xlink:href="#DejaVuSans-Oblique-73" transform="translate(151.686029 0.765625)"/>
      <use xlink:href="#DejaVuSans-Oblique-69" transform="translate(203.785638 0.765625)"/>
      <use xlink:href="#DejaVuSans-Oblique-6e" transform="translate(231.568841 0.765625)"/>
      <use xlink:href="#DejaVuSans-2212" transform="translate(299.597643 39.046875) scale(0.7)"/>
      <use xlink:href="#DejaVuSans-34" transform="translate(358.249987 39.046875) scale(0.7)"/>
      <use xlink:href="#DejaVuSans-28" transform="translate(405.520495 0.765625)"/>
      <use xlink:href="#DejaVuSans-Oblique-3b8" transform="translate(444.534167 0.765625)"/>
      <use xlink:href="#DejaVuSans-2f" transform="translate(505.715807 0.765625)"/>
      <use xlink:href="#DejaVuSans-32" transform="translate(535.782214 0.765625)"/>
      <use xlink:href="#DejaVuSans-29" transform="translate(599.40526 0.765625)"/>
      <use xlink:href="#DejaVuSans-5b" transform="translate(670.889311 0.765625)"/>
      <use xlink:href="#DejaVuSans-Oblique-6d" transform="translate(709.902983 0.765625)"/>
      <use xlink:href="#DejaVuSans-2212" transform="translate(811.964988 39.046875) scale(0.7)"/>
      <use xlink:href="#DejaVuSans-32" transform="translate(870.617332 39.046875) scale(0.7)"/>
      <use xlink:href="#DejaVuSans-5d" transform="translate(917.887839 0.765625)"/>
     </g>
    </g>
   </g>
   <g id="matplotlib.axis_2">
    <g id="ytick_1">
     <g id="line2d_7">
      <defs>
       <path id="m76ba0d3c09" d="M 0 0 
L -3.5 0 
" style="stroke: #000000; stroke-width: 0.8"/>
      </defs>
      <g>
       <use xlink:href="#m76ba0d3c09" x="57.6" y="294.314493" style="stroke: #000000; stroke-width: 0.8"/>
      </g>
     </g>
     <g id="text_8">
      <!-- 0.00 -->
      <g transform="translate(28.334375 298.113712) scale(0.1 -0.1)">
       <defs>
        <path id="DejaVuSans-2e" d="M 684 794 
L 1344 794 
L 1344 0 
L 684 0 
L 684 794 
z
" transform="scale(0.015625)"/>
       </defs>
       <use xlink:href="#DejaVuSans-30"/>
       <use xlink:href="#DejaVuSans-2e" x="63.623047"/>
       <use xlink:href="#DejaVuSans-30" x="95.410156"/>
       <use xlink:href="#DejaVuSans-30" x="159.033203"/>
      </g>
     </g>
    </g>
    <g id="ytick_2">
     <g id="line2d_8">
      <g>
       <use xlink:href="#m76ba0d3c09" x="57.6" y="245.032372" style="stroke: #000000; stroke-width: 0.8"/>
      </g>
     </g>
     <g id="text_9">
      <!-- 0.05 -->
      <g transform="translate(28.334375 248.831591) scale(0.1 -0.1)">
       <defs>
        <path id="DejaVuSans-35" d="M 691 4666 
L 3169 4666 
L 3169 4134 
L 1269 4134 
L 1269 2991 
Q 1406 3038 1543 3061 
Q 1681 3084 1819 3084 
Q 2600 3084 3056 2656 
Q 3513 2228 3513 1497 
Q 3513 744 3044 326 
Q 2575 -91 1722 -91 
Q 1428 -91 1123 -41 
Q 819 9 494 109 
L 494 744 
Q 775 591 1075 516 
Q 1375 441 1709 441 
Q 2250 441 2565 725 
Q 2881 1009 2881 1497 
Q 2881 1984 2565 2268 
Q 2250 2553 1709 2553 
Q 1456 2553 1204 2497 
Q 953 2441 691 2322 
L 691 4666 
z
" transform="scale(0.015625)"/>
       </defs>
       <use xlink:href="#DejaVuSans-30"/>
       <use xlink:href="#DejaVuSans-2e" x="63.623047"/>
       <use xlink:href="#DejaVuSans-30" x="95.410156"/>
       <use xlink:href="#DejaVuSans-35" x="159.033203"/>
      </g>
     </g>
    </g>
    <g id="ytick_3">
     <g id="line2d_9">
      <g>
       <use xlink:href="#m76ba0d3c09" x="57.6" y="195.750252" style="stroke: #000000; stroke-width: 0.8"/>
      </g>
     </g>
     <g id="text_10">
      <!-- 0.10 -->
      <g transform="translate(28.334375 199.54947) scale(0.1 -0.1)">
       <use xlink:href="#DejaVuSans-30"/>
       <use xlink:href="#DejaVuSans-2e" x="63.623047"/>
       <use xlink:href="#DejaVuSans-31" x="95.410156"/>
       <use xlink:href="#DejaVuSans-30" x="159.033203"/>
      </g>
     </g>
    </g>
    <g id="ytick_4">
     <g id="line2d_10">
      <g>
       <use xlink:href="#m76ba0d3c09" x="57.6" y="146.468131" style="stroke: #000000; stroke-width: 0.8"/>
      </g>
     </g>
     <g id="text_11">
      <!-- 0.15 -->
      <g transform="translate(28.334375 150.26735) scale(0.1 -0.1)">
       <use xlink:href="#DejaVuSans-30"/>
       <use xlink:href="#DejaVuSans-2e" x="63.623047"/>
       <use xlink:href="#DejaVuSans-31" x="95.410156"/>
       <use xlink:href="#DejaVuSans-35" x="159.033203"/>
      </g>
     </g>
    </g>
    <g id="ytick_5">
     <g id="line2d_11">
      <g>
       <use xlink:href="#m76ba0d3c09" x="57.6" y="97.18601" style="stroke: #000000; stroke-width: 0.8"/>
      </g>
     </g>
     <g id="text_12">
      <!-- 0.20 -->
      <g transform="translate(28.334375 100.985229) scale(0.1 -0.1)">
       <use xlink:href="#DejaVuSans-30"/>
       <use xlink:href="#DejaVuSans-2e" x="63.623047"/>
       <use xlink:href="#DejaVuSans-32" x="95.410156"/>
       <use xlink:href="#DejaVuSans-30" x="159.033203"/>
      </g>
     </g>
    </g>
    <g id="ytick_6">
     <g id="line2d_12">
      <g>
       <use xlink:href="#m76ba0d3c09" x="57.6" y="47.903889" style="stroke: #000000; stroke-width: 0.8"/>
      </g>
     </g>
     <g id="text_13">
      <!-- 0.25 -->
      <g transform="translate(28.334375 51.703108) scale(0.1 -0.1)">
       <use xlink:href="#DejaVuSans-30"/>
       <use xlink:href="#DejaVuSans-2e" x="63.623047"/>
       <use xlink:href="#DejaVuSans-32" x="95.410156"/>
       <use xlink:href="#DejaVuSans-35" x="159.033203"/>
      </g>
     </g>
    </g>
    <g id="text_14">
     <!-- $Zählrate ~[s^{-1}]$ -->
     <g transform="translate(22.254687 209.428) rotate(-90) scale(0.1 -0.1)">
      <defs>
       <path id="DejaVuSans-Oblique-5a" d="M 838 4666 
L 4500 4666 
L 4409 4184 
L 794 531 
L 3769 531 
L 3669 0 
L -141 0 
L -50 481 
L 3566 4134 
L 738 4134 
L 838 4666 
z
" transform="scale(0.015625)"/>
       <path id="DejaVuSans-Oblique-e4" d="M 3438 1997 
L 3047 0 
L 2472 0 
L 2578 531 
Q 2325 219 2001 64 
Q 1678 -91 1281 -91 
Q 834 -91 548 182 
Q 263 456 263 884 
Q 263 1497 752 1853 
Q 1241 2209 2100 2209 
L 2900 2209 
L 2931 2363 
Q 2938 2388 2941 2417 
Q 2944 2447 2944 2509 
Q 2944 2788 2717 2942 
Q 2491 3097 2081 3097 
Q 1800 3097 1504 3025 
Q 1209 2953 897 2809 
L 997 3341 
Q 1322 3463 1633 3523 
Q 1944 3584 2234 3584 
Q 2853 3584 3176 3315 
Q 3500 3047 3500 2534 
Q 3500 2431 3484 2292 
Q 3469 2153 3438 1997 
z
M 2816 1759 
L 2241 1759 
Q 1534 1759 1195 1570 
Q 856 1381 856 984 
Q 856 709 1029 553 
Q 1203 397 1509 397 
Q 1978 397 2328 733 
Q 2678 1069 2791 1631 
L 2816 1759 
z
M 1612 4850 
L 2253 4850 
L 2125 4219 
L 1490 4219 
L 1612 4850 
z
M 2834 4850 
L 3468 4850 
L 3346 4219 
L 2712 4219 
L 2834 4850 
z
" transform="scale(0.015625)"/>
       <path id="DejaVuSans-Oblique-68" d="M 3566 2113 
L 3156 0 
L 2578 0 
L 2988 2091 
Q 3016 2238 3031 2350 
Q 3047 2463 3047 2528 
Q 3047 2791 2881 2937 
Q 2716 3084 2419 3084 
Q 1956 3084 1617 2771 
Q 1278 2459 1178 1941 
L 800 0 
L 225 0 
L 1172 4863 
L 1747 4863 
L 1375 2950 
Q 1594 3244 1934 3414 
Q 2275 3584 2650 3584 
Q 3113 3584 3367 3334 
Q 3622 3084 3622 2631 
Q 3622 2519 3608 2391 
Q 3594 2263 3566 2113 
z
" transform="scale(0.015625)"/>
       <path id="DejaVuSans-Oblique-6c" d="M 1172 4863 
L 1747 4863 
L 800 0 
L 225 0 
L 1172 4863 
z
" transform="scale(0.015625)"/>
       <path id="DejaVuSans-Oblique-61" d="M 3438 1997 
L 3047 0 
L 2472 0 
L 2578 531 
Q 2325 219 2001 64 
Q 1678 -91 1281 -91 
Q 834 -91 548 182 
Q 263 456 263 884 
Q 263 1497 752 1853 
Q 1241 2209 2100 2209 
L 2900 2209 
L 2931 2363 
Q 2938 2388 2941 2417 
Q 2944 2447 2944 2509 
Q 2944 2788 2717 2942 
Q 2491 3097 2081 3097 
Q 1800 3097 1504 3025 
Q 1209 2953 897 2809 
L 997 3341 
Q 1322 3463 1633 3523 
Q 1944 3584 2234 3584 
Q 2853 3584 3176 3315 
Q 3500 3047 3500 2534 
Q 3500 2431 3484 2292 
Q 3469 2153 3438 1997 
z
M 2816 1759 
L 2241 1759 
Q 1534 1759 1195 1570 
Q 856 1381 856 984 
Q 856 709 1029 553 
Q 1203 397 1509 397 
Q 1978 397 2328 733 
Q 2678 1069 2791 1631 
L 2816 1759 
z
" transform="scale(0.015625)"/>
       <path id="DejaVuSans-Oblique-74" d="M 2706 3500 
L 2619 3053 
L 1472 3053 
L 1100 1153 
Q 1081 1047 1072 975 
Q 1063 903 1063 863 
Q 1063 663 1183 572 
Q 1303 481 1569 481 
L 2150 481 
L 2053 0 
L 1503 0 
Q 991 0 739 200 
Q 488 400 488 806 
Q 488 878 497 964 
Q 506 1050 525 1153 
L 897 3053 
L 409 3053 
L 500 3500 
L 978 3500 
L 1172 4494 
L 1747 4494 
L 1556 3500 
L 2706 3500 
z
" transform="scale(0.015625)"/>
       <path id="DejaVuSans-Oblique-65" d="M 3078 2063 
Q 3088 2113 3092 2166 
Q 3097 2219 3097 2272 
Q 3097 2653 2873 2875 
Q 2650 3097 2266 3097 
Q 1838 3097 1509 2826 
Q 1181 2556 1013 2059 
L 3078 2063 
z
M 3578 1613 
L 903 1613 
Q 884 1494 878 1425 
Q 872 1356 872 1306 
Q 872 872 1139 634 
Q 1406 397 1894 397 
Q 2269 397 2603 481 
Q 2938 566 3225 728 
L 3116 159 
Q 2806 34 2476 -28 
Q 2147 -91 1806 -91 
Q 1078 -91 686 257 
Q 294 606 294 1247 
Q 294 1794 489 2264 
Q 684 2734 1063 3103 
Q 1306 3334 1642 3459 
Q 1978 3584 2356 3584 
Q 2950 3584 3301 3228 
Q 3653 2872 3653 2272 
Q 3653 2128 3634 1964 
Q 3616 1800 3578 1613 
z
" transform="scale(0.015625)"/>
      </defs>
      <use xlink:href="#DejaVuSans-Oblique-5a" transform="translate(0 0.684375)"/>
      <use xlink:href="#DejaVuSans-Oblique-e4" transform="translate(68.505859 0.684375)"/>
      <use xlink:href="#DejaVuSans-Oblique-68" transform="translate(129.785156 0.684375)"/>
      <use xlink:href="#DejaVuSans-Oblique-6c" transform="translate(193.164062 0.684375)"/>
      <use xlink:href="#DejaVuSans-Oblique-72" transform="translate(220.947266 0.684375)"/>
      <use xlink:href="#DejaVuSans-Oblique-61" transform="translate(262.060547 0.684375)"/>
      <use xlink:href="#DejaVuSans-Oblique-74" transform="translate(323.339844 0.684375)"/>
      <use xlink:href="#DejaVuSans-Oblique-65" transform="translate(362.548828 0.684375)"/>
      <use xlink:href="#DejaVuSans-5b" transform="translate(456.542644 0.684375)"/>
      <use xlink:href="#DejaVuSans-Oblique-73" transform="translate(495.556316 0.684375)"/>
      <use xlink:href="#DejaVuSans-2212" transform="translate(552.305821 38.965625) scale(0.7)"/>
      <use xlink:href="#DejaVuSans-31" transform="translate(610.958165 38.965625) scale(0.7)"/>
      <use xlink:href="#DejaVuSans-5d" transform="translate(658.228673 0.684375)"/>
     </g>
    </g>
   </g>
   <g id="LineCollection_1">
    <path d="M 318.023484 143.879476 
L 410.115404 143.879476 
" clip-path="url(#pbb5d257eb3)" style="fill: none; stroke: #808080; stroke-width: 1.5"/>
    <path d="M 204.58244 185.342847 
L 239.085397 185.342847 
" clip-path="url(#pbb5d257eb3)" style="fill: none; stroke: #808080; stroke-width: 1.5"/>
    <path d="M 152.34792 224.762338 
L 169.449628 224.762338 
" clip-path="url(#pbb5d257eb3)" style="fill: none; stroke: #808080; stroke-width: 1.5"/>
    <path d="M 123.24736 243.296338 
L 133.197519 243.296338 
" clip-path="url(#pbb5d257eb3)" style="fill: none; stroke: #808080; stroke-width: 1.5"/>
    <path d="M 105.053147 262.713744 
L 111.447965 262.713744 
" clip-path="url(#pbb5d257eb3)" style="fill: none; stroke: #808080; stroke-width: 1.5"/>
   </g>
   <g id="LineCollection_2">
    <path d="M 364.069444 146.888177 
L 364.069444 140.870776 
" clip-path="url(#pbb5d257eb3)" style="fill: none; stroke: #808080; stroke-width: 1.5"/>
    <path d="M 221.833919 187.52228 
L 221.833919 183.163414 
" clip-path="url(#pbb5d257eb3)" style="fill: none; stroke: #808080; stroke-width: 1.5"/>
    <path d="M 160.898774 226.153381 
L 160.898774 223.371295 
" clip-path="url(#pbb5d257eb3)" style="fill: none; stroke: #808080; stroke-width: 1.5"/>
    <path d="M 128.222439 244.316701 
L 128.222439 242.275975 
" clip-path="url(#pbb5d257eb3)" style="fill: none; stroke: #808080; stroke-width: 1.5"/>
    <path d="M 108.250556 263.345759 
L 108.250556 262.081729 
" clip-path="url(#pbb5d257eb3)" style="fill: none; stroke: #808080; stroke-width: 1.5"/>
   </g>
   <g id="line2d_13">
    <path d="M 57.6 295.462603 
L 61.207273 293.01948 
L 64.814545 290.576356 
L 68.421818 288.133233 
L 72.029091 285.69011 
L 75.636364 283.246987 
L 79.243636 280.803863 
L 82.850909 278.36074 
L 86.458182 275.917617 
L 90.065455 273.474493 
L 93.672727 271.03137 
L 97.28 268.588247 
L 100.887273 266.145123 
L 104.494545 263.702 
L 108.101818 261.258877 
L 111.709091 258.815754 
L 115.316364 256.37263 
L 118.923636 253.929507 
L 122.530909 251.486384 
L 126.138182 249.04326 
L 129.745455 246.600137 
L 133.352727 244.157014 
L 136.96 241.713891 
L 140.567273 239.270767 
L 144.174545 236.827644 
L 147.781818 234.384521 
L 151.389091 231.941397 
L 154.996364 229.498274 
L 158.603636 227.055151 
L 162.210909 224.612027 
L 165.818182 222.168904 
L 169.425455 219.725781 
L 173.032727 217.282658 
L 176.64 214.839534 
L 180.247273 212.396411 
L 183.854545 209.953288 
L 187.461818 207.510164 
L 191.069091 205.067041 
L 194.676364 202.623918 
L 198.283636 200.180795 
L 201.890909 197.737671 
L 205.498182 195.294548 
L 209.105455 192.851425 
L 212.712727 190.408301 
L 216.32 187.965178 
L 219.927273 185.522055 
L 223.534545 183.078932 
L 227.141818 180.635808 
L 230.749091 178.192685 
L 234.356364 175.749562 
L 237.963636 173.306438 
L 241.570909 170.863315 
L 245.178182 168.420192 
L 248.785455 165.977068 
L 252.392727 163.533945 
L 256 161.090822 
L 259.607273 158.647699 
L 263.214545 156.204575 
L 266.821818 153.761452 
L 270.429091 151.318329 
L 274.036364 148.875205 
L 277.643636 146.432082 
L 281.250909 143.988959 
L 284.858182 141.545836 
L 288.465455 139.102712 
L 292.072727 136.659589 
L 295.68 134.216466 
L 299.287273 131.773342 
L 302.894545 129.330219 
L 306.501818 126.887096 
L 310.109091 124.443973 
L 313.716364 122.000849 
L 317.323636 119.557726 
L 320.930909 117.114603 
L 324.538182 114.671479 
L 328.145455 112.228356 
L 331.752727 109.785233 
L 335.36 107.342109 
L 338.967273 104.898986 
L 342.574545 102.455863 
L 346.181818 100.01274 
L 349.789091 97.569616 
L 353.396364 95.126493 
L 357.003636 92.68337 
L 360.610909 90.240246 
L 364.218182 87.797123 
L 367.825455 85.354 
L 371.432727 82.910877 
L 375.04 80.467753 
L 378.647273 78.02463 
L 382.254545 75.581507 
L 385.861818 73.138383 
L 389.469091 70.69526 
L 393.076364 68.252137 
L 396.683636 65.809013 
L 400.290909 63.36589 
L 403.898182 60.922767 
L 407.505455 58.479644 
L 411.112727 56.03652 
L 414.72 53.593397 
" clip-path="url(#pbb5d257eb3)" style="fill: none; stroke-dasharray: 5.55,2.4; stroke-dashoffset: 0; stroke: #ffa500; stroke-width: 1.5"/>
   </g>
   <g id="line2d_14"/>
   <g id="patch_3">
    <path d="M 57.6 307.584 
L 57.6 41.472 
" style="fill: none; stroke: #000000; stroke-width: 0.8; stroke-linejoin: miter; stroke-linecap: square"/>
   </g>
   <g id="patch_4">
    <path d="M 414.72 307.584 
L 414.72 41.472 
" style="fill: none; stroke: #000000; stroke-width: 0.8; stroke-linejoin: miter; stroke-linecap: square"/>
   </g>
   <g id="patch_5">
    <path d="M 57.6 307.584 
L 414.72 307.584 
" style="fill: none; stroke: #000000; stroke-width: 0.8; stroke-linejoin: miter; stroke-linecap: square"/>
   </g>
   <g id="patch_6">
    <path d="M 57.6 41.472 
L 414.72 41.472 
" style="fill: none; stroke: #000000; stroke-width: 0.8; stroke-linejoin: miter; stroke-linecap: square"/>
   </g>
   <g id="text_15">
    <!-- Rutherford-Streuung -->
    <g transform="translate(174.625313 35.472) scale(0.12 -0.12)">
     <defs>
      <path id="DejaVuSans-52" d="M 2841 2188 
Q 3044 2119 3236 1894 
Q 3428 1669 3622 1275 
L 4263 0 
L 3584 0 
L 2988 1197 
Q 2756 1666 2539 1819 
Q 2322 1972 1947 1972 
L 1259 1972 
L 1259 0 
L 628 0 
L 628 4666 
L 2053 4666 
Q 2853 4666 3247 4331 
Q 3641 3997 3641 3322 
Q 3641 2881 3436 2590 
Q 3231 2300 2841 2188 
z
M 1259 4147 
L 1259 2491 
L 2053 2491 
Q 2509 2491 2742 2702 
Q 2975 2913 2975 3322 
Q 2975 3731 2742 3939 
Q 2509 4147 2053 4147 
L 1259 4147 
z
" transform="scale(0.015625)"/>
      <path id="DejaVuSans-75" d="M 544 1381 
L 544 3500 
L 1119 3500 
L 1119 1403 
Q 1119 906 1312 657 
Q 1506 409 1894 409 
Q 2359 409 2629 706 
Q 2900 1003 2900 1516 
L 2900 3500 
L 3475 3500 
L 3475 0 
L 2900 0 
L 2900 538 
Q 2691 219 2414 64 
Q 2138 -91 1772 -91 
Q 1169 -91 856 284 
Q 544 659 544 1381 
z
M 1991 3584 
L 1991 3584 
z
" transform="scale(0.015625)"/>
      <path id="DejaVuSans-74" d="M 1172 4494 
L 1172 3500 
L 2356 3500 
L 2356 3053 
L 1172 3053 
L 1172 1153 
Q 1172 725 1289 603 
Q 1406 481 1766 481 
L 2356 481 
L 2356 0 
L 1766 0 
Q 1100 0 847 248 
Q 594 497 594 1153 
L 594 3053 
L 172 3053 
L 172 3500 
L 594 3500 
L 594 4494 
L 1172 4494 
z
" transform="scale(0.015625)"/>
      <path id="DejaVuSans-68" d="M 3513 2113 
L 3513 0 
L 2938 0 
L 2938 2094 
Q 2938 2591 2744 2837 
Q 2550 3084 2163 3084 
Q 1697 3084 1428 2787 
Q 1159 2491 1159 1978 
L 1159 0 
L 581 0 
L 581 4863 
L 1159 4863 
L 1159 2956 
Q 1366 3272 1645 3428 
Q 1925 3584 2291 3584 
Q 2894 3584 3203 3211 
Q 3513 2838 3513 2113 
z
" transform="scale(0.015625)"/>
      <path id="DejaVuSans-65" d="M 3597 1894 
L 3597 1613 
L 953 1613 
Q 991 1019 1311 708 
Q 1631 397 2203 397 
Q 2534 397 2845 478 
Q 3156 559 3463 722 
L 3463 178 
Q 3153 47 2828 -22 
Q 2503 -91 2169 -91 
Q 1331 -91 842 396 
Q 353 884 353 1716 
Q 353 2575 817 3079 
Q 1281 3584 2069 3584 
Q 2775 3584 3186 3129 
Q 3597 2675 3597 1894 
z
M 3022 2063 
Q 3016 2534 2758 2815 
Q 2500 3097 2075 3097 
Q 1594 3097 1305 2825 
Q 1016 2553 972 2059 
L 3022 2063 
z
" transform="scale(0.015625)"/>
      <path id="DejaVuSans-72" d="M 2631 2963 
Q 2534 3019 2420 3045 
Q 2306 3072 2169 3072 
Q 1681 3072 1420 2755 
Q 1159 2438 1159 1844 
L 1159 0 
L 581 0 
L 581 3500 
L 1159 3500 
L 1159 2956 
Q 1341 3275 1631 3429 
Q 1922 3584 2338 3584 
Q 2397 3584 2469 3576 
Q 2541 3569 2628 3553 
L 2631 2963 
z
" transform="scale(0.015625)"/>
      <path id="DejaVuSans-66" d="M 2375 4863 
L 2375 4384 
L 1825 4384 
Q 1516 4384 1395 4259 
Q 1275 4134 1275 3809 
L 1275 3500 
L 2222 3500 
L 2222 3053 
L 1275 3053 
L 1275 0 
L 697 0 
L 697 3053 
L 147 3053 
L 147 3500 
L 697 3500 
L 697 3744 
Q 697 4328 969 4595 
Q 1241 4863 1831 4863 
L 2375 4863 
z
" transform="scale(0.015625)"/>
      <path id="DejaVuSans-6f" d="M 1959 3097 
Q 1497 3097 1228 2736 
Q 959 2375 959 1747 
Q 959 1119 1226 758 
Q 1494 397 1959 397 
Q 2419 397 2687 759 
Q 2956 1122 2956 1747 
Q 2956 2369 2687 2733 
Q 2419 3097 1959 3097 
z
M 1959 3584 
Q 2709 3584 3137 3096 
Q 3566 2609 3566 1747 
Q 3566 888 3137 398 
Q 2709 -91 1959 -91 
Q 1206 -91 779 398 
Q 353 888 353 1747 
Q 353 2609 779 3096 
Q 1206 3584 1959 3584 
z
" transform="scale(0.015625)"/>
      <path id="DejaVuSans-64" d="M 2906 2969 
L 2906 4863 
L 3481 4863 
L 3481 0 
L 2906 0 
L 2906 525 
Q 2725 213 2448 61 
Q 2172 -91 1784 -91 
Q 1150 -91 751 415 
Q 353 922 353 1747 
Q 353 2572 751 3078 
Q 1150 3584 1784 3584 
Q 2172 3584 2448 3432 
Q 2725 3281 2906 2969 
z
M 947 1747 
Q 947 1113 1208 752 
Q 1469 391 1925 391 
Q 2381 391 2643 752 
Q 2906 1113 2906 1747 
Q 2906 2381 2643 2742 
Q 2381 3103 1925 3103 
Q 1469 3103 1208 2742 
Q 947 2381 947 1747 
z
" transform="scale(0.015625)"/>
      <path id="DejaVuSans-2d" d="M 313 2009 
L 1997 2009 
L 1997 1497 
L 313 1497 
L 313 2009 
z
" transform="scale(0.015625)"/>
      <path id="DejaVuSans-53" d="M 3425 4513 
L 3425 3897 
Q 3066 4069 2747 4153 
Q 2428 4238 2131 4238 
Q 1616 4238 1336 4038 
Q 1056 3838 1056 3469 
Q 1056 3159 1242 3001 
Q 1428 2844 1947 2747 
L 2328 2669 
Q 3034 2534 3370 2195 
Q 3706 1856 3706 1288 
Q 3706 609 3251 259 
Q 2797 -91 1919 -91 
Q 1588 -91 1214 -16 
Q 841 59 441 206 
L 441 856 
Q 825 641 1194 531 
Q 1563 422 1919 422 
Q 2459 422 2753 634 
Q 3047 847 3047 1241 
Q 3047 1584 2836 1778 
Q 2625 1972 2144 2069 
L 1759 2144 
Q 1053 2284 737 2584 
Q 422 2884 422 3419 
Q 422 4038 858 4394 
Q 1294 4750 2059 4750 
Q 2388 4750 2728 4690 
Q 3069 4631 3425 4513 
z
" transform="scale(0.015625)"/>
      <path id="DejaVuSans-6e" d="M 3513 2113 
L 3513 0 
L 2938 0 
L 2938 2094 
Q 2938 2591 2744 2837 
Q 2550 3084 2163 3084 
Q 1697 3084 1428 2787 
Q 1159 2491 1159 1978 
L 1159 0 
L 581 0 
L 581 3500 
L 1159 3500 
L 1159 2956 
Q 1366 3272 1645 3428 
Q 1925 3584 2291 3584 
Q 2894 3584 3203 3211 
Q 3513 2838 3513 2113 
z
" transform="scale(0.015625)"/>
      <path id="DejaVuSans-67" d="M 2906 1791 
Q 2906 2416 2648 2759 
Q 2391 3103 1925 3103 
Q 1463 3103 1205 2759 
Q 947 2416 947 1791 
Q 947 1169 1205 825 
Q 1463 481 1925 481 
Q 2391 481 2648 825 
Q 2906 1169 2906 1791 
z
M 3481 434 
Q 3481 -459 3084 -895 
Q 2688 -1331 1869 -1331 
Q 1566 -1331 1297 -1286 
Q 1028 -1241 775 -1147 
L 775 -588 
Q 1028 -725 1275 -790 
Q 1522 -856 1778 -856 
Q 2344 -856 2625 -561 
Q 2906 -266 2906 331 
L 2906 616 
Q 2728 306 2450 153 
Q 2172 0 1784 0 
Q 1141 0 747 490 
Q 353 981 353 1791 
Q 353 2603 747 3093 
Q 1141 3584 1784 3584 
Q 2172 3584 2450 3431 
Q 2728 3278 2906 2969 
L 2906 3500 
L 3481 3500 
L 3481 434 
z
" transform="scale(0.015625)"/>
     </defs>
     <use xlink:href="#DejaVuSans-52"/>
     <use xlink:href="#DejaVuSans-75" x="64.982422"/>
     <use xlink:href="#DejaVuSans-74" x="128.361328"/>
     <use xlink:href="#DejaVuSans-68" x="167.570312"/>
     <use xlink:href="#DejaVuSans-65" x="230.949219"/>
     <use xlink:href="#DejaVuSans-72" x="292.472656"/>
     <use xlink:href="#DejaVuSans-66" x="333.585938"/>
     <use xlink:href="#DejaVuSans-6f" x="368.791016"/>
     <use xlink:href="#DejaVuSans-72" x="429.972656"/>
     <use xlink:href="#DejaVuSans-64" x="469.335938"/>
     <use xlink:href="#DejaVuSans-2d" x="532.8125"/>
     <use xlink:href="#DejaVuSans-53" x="568.896484"/>
     <use xlink:href="#DejaVuSans-74" x="632.373047"/>
     <use xlink:href="#DejaVuSans-72" x="671.582031"/>
     <use xlink:href="#DejaVuSans-65" x="710.445312"/>
     <use xlink:href="#DejaVuSans-75" x="771.96875"/>
     <use xlink:href="#DejaVuSans-75" x="835.347656"/>
     <use xlink:href="#DejaVuSans-6e" x="898.726562"/>
     <use xlink:href="#DejaVuSans-67" x="962.105469"/>
    </g>
   </g>
  </g>
 </g>
 <defs>
  <clipPath id="pbb5d257eb3">
   <rect x="57.6" y="41.472" width="357.12" height="266.112"/>
  </clipPath>
 </defs>
</svg>
